<svg width="300" height="60" viewBox="0 0 300 60" fill="none" xmlns="http://www.w3.org/2000/svg">
<g clip-path="url(#clip0_3_371)">
<path d="M18.0891 25.2125L29.7411 13.5609L41.3994 25.2187L48.1793 18.4387L29.7411 0L11.3091 18.4325L18.0891 25.2125Z" fill="white" fill-opacity="0.5"/>
<path d="M13.3009 29.9989L6.521 23.2191L-0.2592 29.9993L6.52066 36.7791L13.3009 29.9989Z" fill="white" fill-opacity="0.5"/>
<path d="M18.089 34.7875L29.7411 46.4391L41.3988 34.7818L48.1826 41.558L48.1793 41.5618L29.7411 60L11.3086 41.5679L11.2991 41.5585L18.089 34.7875Z" fill="white" fill-opacity="0.5"/>
<path d="M52.9617 36.7823L59.7419 30.0021L52.9621 23.2222L46.1819 30.0024L52.9617 36.7823Z" fill="white" fill-opacity="0.5"/>
<path d="M36.6183 29.9964H36.6212L29.7412 23.1165L24.6568 28.2008H24.6563L24.0725 28.7852L22.8674 29.9903L22.8579 29.9997L22.8674 30.0097L29.7412 36.8835L36.6212 30.0035L36.6245 29.9997L36.6183 29.9964Z" fill="white" fill-opacity="0.5"/>
<path d="M70.3113 14.5385H85.0574C88.7173 14.5385 91.4848 15.4778 93.3605 17.3563C94.812 18.8111 95.5375 20.6143 95.5375 22.7653V22.8563C95.5375 23.7652 95.4252 24.5684 95.1992 25.2651C94.9736 25.9626 94.6722 26.5905 94.2955 27.1512C93.9197 27.7122 93.4827 28.2046 92.9861 28.6283C92.489 29.0529 91.9549 29.4168 91.3829 29.7192C93.2226 30.4168 94.6708 31.3631 95.7266 32.5602C96.782 33.7577 97.3104 35.4168 97.3104 37.5375V37.628C97.3104 39.0828 97.0308 40.3552 96.4711 41.4466C95.9114 42.537 95.1096 43.4464 94.0656 44.1738C93.0216 44.9013 91.7663 45.4463 90.2991 45.8102C88.832 46.1737 87.206 46.3552 85.4218 46.3552H70.3113V14.5385ZM83.5831 27.4014C85.129 27.4014 86.3563 27.1369 87.2648 26.6062C88.1737 26.0759 88.6282 25.2196 88.6282 24.0382V23.9472C88.6282 22.8871 88.2339 22.0767 87.4463 21.5156C86.6582 20.955 85.5218 20.6745 84.0376 20.6745H77.1287V27.4014H83.5831ZM85.4469 40.2197C86.9923 40.2197 88.2036 39.9401 89.0831 39.379C89.9617 38.8184 90.4015 37.9469 90.4015 36.765V36.6745C90.4015 35.6139 89.992 34.7732 89.1741 34.1515C88.3557 33.5312 87.0378 33.2203 85.2195 33.2203H77.1287V40.2202H85.4469V40.2197Z" fill="white" fill-opacity="0.5"/>
<path d="M106.093 14.5385H113.093V46.3561H106.093V14.5385Z" fill="white" fill-opacity="0.5"/>
<path d="M123.695 14.5385H130.149L145.058 34.1292V14.5385H151.967V46.3561H146.013L130.604 26.1294V46.3561H123.695V14.5385Z" fill="white" fill-opacity="0.5"/>
<path d="M173.159 14.3115H179.613L193.25 46.3561H185.932L183.023 39.2203H169.568L166.66 46.3561H159.522L173.159 14.3115ZM180.523 33.0379L176.295 22.7203L172.069 33.0379H180.523Z" fill="white" fill-opacity="0.5"/>
<path d="M200.806 14.5385H207.261L222.169 34.1292V14.5385H229.078V46.3561H223.124L207.715 26.1294V46.3561H200.806V14.5385Z" fill="white" fill-opacity="0.5"/>
<path d="M254.27 46.9011C251.936 46.9011 249.77 46.4765 247.77 45.6287C245.77 44.781 244.043 43.6213 242.588 42.1513C241.133 40.6818 239.997 38.9469 239.18 36.947C238.361 34.9467 237.952 32.8104 237.952 30.5376V30.4471C237.952 28.1743 238.361 26.0461 239.18 24.0609C239.997 22.0763 241.133 20.3338 242.588 18.8339C244.042 17.334 245.785 16.1517 247.815 15.2883C249.844 14.4248 252.088 13.9931 254.543 13.9931C256.026 13.9931 257.382 14.1149 258.61 14.3566C259.837 14.5997 260.95 14.9324 261.951 15.3565C262.951 15.7811 263.875 16.2962 264.724 16.9019C265.571 17.5084 266.36 18.1747 267.087 18.9022L262.633 24.0382C261.389 22.9174 260.125 22.0379 258.838 21.4019C257.549 20.766 256.103 20.4475 254.497 20.4475C253.163 20.4475 251.928 20.7053 250.793 21.2204C249.656 21.7356 248.679 22.4473 247.86 23.3563C247.043 24.2652 246.406 25.3187 245.951 26.5152C245.497 27.7128 245.27 28.9927 245.27 30.3561V30.4467C245.27 31.81 245.497 33.0986 245.951 34.3098C246.406 35.5225 247.034 36.5826 247.838 37.4915C248.64 38.4005 249.61 39.1208 250.746 39.6511C251.884 40.1818 253.133 40.4463 254.497 40.4463C256.315 40.4463 257.852 40.1131 259.11 39.4463C260.367 38.7805 261.618 37.8711 262.86 36.7191L267.315 41.2192C266.496 42.0982 265.646 42.8863 264.769 43.5825C263.89 44.28 262.928 44.8781 261.882 45.3785C260.837 45.878 259.692 46.2576 258.451 46.5144C257.208 46.7718 255.815 46.9011 254.27 46.9011Z" fill="white" fill-opacity="0.5"/>
<path d="M275.553 14.5385H299.507V20.7659H282.462V27.2203H297.462V33.4473H282.462V40.1292H299.735V46.3561H275.553V14.5385Z" fill="white" fill-opacity="0.5"/>
</g>
<defs>
<clipPath id="clip0_3_371">
<rect width="299.507" height="60" fill="white"/>
</clipPath>
</defs>
</svg>
