<svg width="192" height="60" viewBox="0 0 192 60" fill="none" xmlns="http://www.w3.org/2000/svg">
<path fill-rule="evenodd" clip-rule="evenodd" d="M63.9215 28.9824C63.6875 26.2944 61.6223 23.8404 58.7783 23.8404C55.9343 23.8404 53.9087 26.2944 53.6363 28.9824H63.9203H63.9215ZM65.0891 29.5164C65.0878 29.665 65.0277 29.8069 64.922 29.9113C64.8163 30.0156 64.6736 30.0739 64.5251 30.0732H53.6363C53.9087 32.7624 55.9343 35.2164 58.7783 35.2164C60.7259 35.2164 62.1683 34.476 63.2591 32.9172C63.4175 32.7048 63.6491 32.5656 63.9527 32.694C64.0222 32.725 64.0843 32.7705 64.1348 32.8274C64.1854 32.8842 64.2233 32.9512 64.246 33.0239C64.2687 33.0965 64.2757 33.1731 64.2665 33.2487C64.2573 33.3242 64.2321 33.397 64.1927 33.462C63.1031 35.3724 60.9215 36.306 58.7783 36.306C55.1171 36.306 52.5059 33.0348 52.5059 29.5284C52.5059 26.022 55.1171 22.7496 58.7783 22.7496C62.4371 22.7496 65.0831 26.0136 65.0903 29.5164H65.0891ZM78.2963 23.022C78.6083 23.022 78.8423 23.2956 78.8423 23.568C78.8423 23.88 78.6083 24.1128 78.2963 24.1128H75.3743V35.5668C75.3712 35.7104 75.3128 35.8472 75.2113 35.9487C75.1098 36.0502 74.973 36.1086 74.8295 36.1116C74.6857 36.1089 74.5486 36.0506 74.4468 35.9491C74.3451 35.8475 74.2865 35.7106 74.2835 35.5668V24.1128H71.4791C71.407 24.1146 71.3353 24.1018 71.2683 24.0751C71.2013 24.0483 71.1404 24.0083 71.0894 23.9574C71.0383 23.9064 70.9982 23.8456 70.9713 23.7787C70.9444 23.7118 70.9314 23.6401 70.9331 23.568C70.9331 23.2956 71.1671 23.022 71.4791 23.022H74.2835V18.8292C74.2835 18.5652 74.4635 18.3204 74.7239 18.2784C75.0863 18.2184 75.3743 18.4692 75.3743 18.8148V23.022H78.2963ZM96.0995 28.554V35.49C96.0995 35.8008 95.8271 36.0336 95.5535 36.0336C95.4815 36.0353 95.4099 36.0223 95.3431 35.9955C95.2762 35.9687 95.2155 35.9286 95.1646 35.8777C95.1137 35.8268 95.0736 35.7661 95.0468 35.6992C95.02 35.6324 95.007 35.5608 95.0087 35.4888V28.554C95.0087 26.2164 93.6839 23.8788 91.0739 23.8788C87.7235 23.8788 86.2823 26.8008 86.4779 29.8008C86.4779 29.8788 86.5163 30.2292 86.5163 30.2688V35.4744C86.5163 35.7384 86.3363 35.9832 86.0771 36.0264C85.7135 36.0852 85.4255 35.8344 85.4255 35.4888V12.6984C85.4255 12.426 85.6595 12.1536 85.9703 12.1536C86.2823 12.1536 86.5163 12.426 86.5163 12.6984V25.5936C87.4523 23.9184 89.1263 22.788 91.0739 22.788C94.2683 22.788 96.0995 25.5936 96.0995 28.554ZM114.449 28.9824C114.215 26.2944 112.149 23.8404 109.305 23.8404C106.461 23.8404 104.436 26.2944 104.163 28.9824H114.447H114.449ZM115.616 29.5164C115.615 29.665 115.555 29.8069 115.449 29.9113C115.344 30.0156 115.201 30.0739 115.052 30.0732H104.163C104.436 32.7624 106.461 35.2164 109.305 35.2164C111.254 35.2164 112.695 34.476 113.786 32.9172C113.945 32.7048 114.176 32.5656 114.48 32.694C114.549 32.725 114.611 32.7705 114.662 32.8274C114.713 32.8842 114.751 32.9512 114.773 33.0239C114.796 33.0965 114.803 33.1731 114.794 33.2487C114.784 33.3242 114.759 33.397 114.72 33.462C113.63 35.3724 111.449 36.306 109.305 36.306C105.644 36.306 103.034 33.0348 103.034 29.5284C103.034 26.022 105.644 22.7496 109.305 22.7496C112.964 22.7496 115.61 26.0136 115.617 29.5164H115.616ZM128.979 23.5284C128.979 23.88 128.785 24.0744 128.473 24.1128C125.279 24.5808 123.837 27.1908 123.837 30.2292V35.436C123.837 35.7 123.657 35.9436 123.397 35.9868C123.035 36.0456 122.745 35.7948 122.745 35.4492V23.5812C122.745 23.3172 122.925 23.0736 123.186 23.0304C123.549 22.9716 123.837 23.2224 123.837 23.568V25.9836C124.733 24.4632 126.525 23.0232 128.395 23.0232C128.667 23.0232 128.979 23.2176 128.979 23.5284ZM145.692 28.9824C145.458 26.2944 143.394 23.8404 140.55 23.8404C137.706 23.8404 135.68 26.2944 135.408 28.9824H145.692ZM146.861 29.5164C146.859 29.6649 146.799 29.8067 146.693 29.9109C146.588 30.0152 146.445 30.0736 146.297 30.0732H135.408C135.68 32.7624 137.706 35.2164 140.55 35.2164C142.497 35.2164 143.939 34.476 145.029 32.9172C145.189 32.7048 145.421 32.5656 145.724 32.694C145.804 32.7287 145.874 32.7827 145.928 32.8512C145.982 32.9197 146.018 33.0006 146.033 33.0864C146.057 33.2162 146.033 33.3504 145.964 33.4632C144.873 35.3712 142.692 36.3072 140.55 36.3072C136.887 36.3072 134.279 33.0348 134.279 29.5272C134.279 26.022 136.887 22.7496 140.55 22.7496C144.207 22.7496 146.855 26.0136 146.862 29.5164H146.861ZM164.43 23.6664V35.5668C164.43 35.8788 164.157 36.1116 163.885 36.1116C163.813 36.1134 163.741 36.1006 163.674 36.0739C163.607 36.0471 163.546 36.0071 163.495 35.9562C163.444 35.9052 163.404 35.8445 163.377 35.7775C163.35 35.7106 163.337 35.6389 163.339 35.5668V33.3072C162.444 35.0988 160.847 36.3852 158.82 36.3852C155.587 36.3852 153.795 33.5796 153.795 30.6192V23.6472C153.795 23.3736 154.028 23.1 154.34 23.1C154.652 23.1 154.886 23.3736 154.886 23.646V30.6192C154.886 32.9568 156.21 35.2944 158.82 35.2944C162.482 35.2944 163.339 31.866 163.339 28.086V23.646C163.34 23.5613 163.361 23.4779 163.399 23.4025C163.438 23.327 163.493 23.2614 163.561 23.2108C163.629 23.1602 163.708 23.126 163.792 23.1107C163.875 23.0955 163.961 23.0996 164.042 23.1228C164.157 23.1595 164.256 23.2323 164.326 23.3303C164.396 23.4282 164.432 23.5461 164.43 23.6664ZM191.972 28.5156V35.4876C191.972 35.8008 191.7 36.0336 191.427 36.0336C191.355 36.0354 191.284 36.0226 191.217 35.9959C191.15 35.9691 191.089 35.9291 191.038 35.8782C190.987 35.8272 190.947 35.7665 190.92 35.6995C190.893 35.6326 190.88 35.5609 190.881 35.4888V28.5156C190.881 26.178 189.558 23.88 186.947 23.88C183.675 23.88 182.429 27.3852 182.429 30.1128V35.4888C182.429 35.8008 182.156 36.0336 181.883 36.0336C181.811 36.0354 181.739 36.0226 181.672 35.9959C181.605 35.9691 181.544 35.9291 181.493 35.8781C181.442 35.8271 181.402 35.7664 181.376 35.6994C181.349 35.6325 181.336 35.5609 181.338 35.4888V28.5156C181.338 26.178 180.013 23.88 177.403 23.88C174.091 23.88 172.728 26.49 172.844 29.9568C172.844 30.0348 172.884 30.1908 172.844 30.2292V35.4756C172.844 35.7396 172.665 35.982 172.405 36.0252C172.041 36.0852 171.753 35.8332 171.753 35.4888V23.5824C171.753 23.3184 171.933 23.0736 172.194 23.0304C172.556 22.9716 172.844 23.2224 172.844 23.568V25.554C173.78 23.88 175.455 22.7892 177.404 22.7892C179.623 22.7892 181.338 24.1908 182.039 26.256C182.934 24.2304 184.687 22.788 186.947 22.788C190.141 22.788 191.972 25.554 191.972 28.5156Z" fill="white" fill-opacity="0.5"/>
<path fill-rule="evenodd" clip-rule="evenodd" d="M0.392334 30.678L18.5843 41.4324V0.492004L0.392334 30.678Z" fill="white" fill-opacity="0.5"/>
<path fill-rule="evenodd" clip-rule="evenodd" d="M18.5854 0.492004V41.4324L36.7775 30.678L18.5854 0.492004Z" fill="white" fill-opacity="0.5"/>
<path fill-rule="evenodd" clip-rule="evenodd" d="M18.5855 22.41L0.392334 30.678L18.5843 41.4324L36.7775 30.6792L18.5855 22.41Z" fill="white" fill-opacity="0.5"/>
<path fill-rule="evenodd" clip-rule="evenodd" d="M18.5855 22.41L0.392334 30.678L18.5843 41.4324L18.5855 22.41Z" fill="white" fill-opacity="0.5"/>
<path fill-rule="evenodd" clip-rule="evenodd" d="M0.392334 34.128L18.5843 59.7648V44.8764L0.392334 34.128Z" fill="white" fill-opacity="0.5"/>
<path fill-rule="evenodd" clip-rule="evenodd" d="M18.5854 44.8764V59.766L36.7894 34.128L18.5854 44.8764Z" fill="white" fill-opacity="0.5"/>
</svg>
